<mxfile host="Electron" agent="Mozilla/5.0 (Macintosh; Intel Mac OS X 10_15_7) AppleWebKit/537.36 (KHTML, like Gecko) draw.io/24.7.8 Chrome/128.0.6613.36 Electron/32.0.1 Safari/537.36" version="24.7.8">
  <diagram name="Page-1" id="44dCGnkqatJNoF8ptMMX">
    <mxGraphModel dx="954" dy="674" grid="1" gridSize="10" guides="1" tooltips="1" connect="1" arrows="1" fold="1" page="1" pageScale="1" pageWidth="827" pageHeight="1169" math="0" shadow="0">
      <root>
        <mxCell id="0" />
        <mxCell id="1" parent="0" />
        <mxCell id="qRhZzr3nd4WuFEURyyHy-1" value="Tenant" style="shape=umlActor;verticalLabelPosition=bottom;verticalAlign=top;html=1;" parent="1" vertex="1">
          <mxGeometry x="60" y="410" width="30" height="60" as="geometry" />
        </mxCell>
        <mxCell id="qRhZzr3nd4WuFEURyyHy-3" value="Login" style="ellipse;whiteSpace=wrap;html=1;" parent="1" vertex="1">
          <mxGeometry x="340" y="200" width="140" height="70" as="geometry" />
        </mxCell>
        <mxCell id="qRhZzr3nd4WuFEURyyHy-4" value="Create Account/&lt;div&gt;Existing Accounts&lt;/div&gt;" style="ellipse;whiteSpace=wrap;html=1;" parent="1" vertex="1">
          <mxGeometry x="340" y="90" width="140" height="70" as="geometry" />
        </mxCell>
        <mxCell id="qRhZzr3nd4WuFEURyyHy-5" value="Views Property" style="ellipse;whiteSpace=wrap;html=1;" parent="1" vertex="1">
          <mxGeometry x="340" y="300" width="140" height="70" as="geometry" />
        </mxCell>
        <mxCell id="qRhZzr3nd4WuFEURyyHy-6" value="Displays Property" style="ellipse;whiteSpace=wrap;html=1;" parent="1" vertex="1">
          <mxGeometry x="340" y="570" width="140" height="70" as="geometry" />
        </mxCell>
        <mxCell id="qRhZzr3nd4WuFEURyyHy-7" value="Property Owner" style="shape=umlActor;verticalLabelPosition=bottom;verticalAlign=top;html=1;" parent="1" vertex="1">
          <mxGeometry x="750" y="540" width="30" height="60" as="geometry" />
        </mxCell>
        <mxCell id="qRhZzr3nd4WuFEURyyHy-9" value="Administrator" style="shape=umlActor;verticalLabelPosition=bottom;verticalAlign=top;html=1;" parent="1" vertex="1">
          <mxGeometry x="740" y="330" width="30" height="60" as="geometry" />
        </mxCell>
        <mxCell id="qRhZzr3nd4WuFEURyyHy-11" value="Manage Booking" style="ellipse;whiteSpace=wrap;html=1;" parent="1" vertex="1">
          <mxGeometry x="340" y="660" width="140" height="70" as="geometry" />
        </mxCell>
        <mxCell id="qRhZzr3nd4WuFEURyyHy-13" value="View Booked/&lt;div&gt;Bookings&lt;/div&gt;" style="ellipse;whiteSpace=wrap;html=1;" parent="1" vertex="1">
          <mxGeometry x="340" y="740" width="140" height="70" as="geometry" />
        </mxCell>
        <mxCell id="qRhZzr3nd4WuFEURyyHy-14" value="Cancel Booking&amp;nbsp;" style="ellipse;whiteSpace=wrap;html=1;" parent="1" vertex="1">
          <mxGeometry x="340" y="830" width="140" height="70" as="geometry" />
        </mxCell>
        <mxCell id="qRhZzr3nd4WuFEURyyHy-16" value="Manage Profile" style="ellipse;whiteSpace=wrap;html=1;" parent="1" vertex="1">
          <mxGeometry x="340" y="930" width="140" height="70" as="geometry" />
        </mxCell>
        <mxCell id="qRhZzr3nd4WuFEURyyHy-17" value="" style="edgeStyle=none;html=1;endArrow=none;verticalAlign=bottom;rounded=0;entryX=0;entryY=0.5;entryDx=0;entryDy=0;exitX=0.75;exitY=0.1;exitDx=0;exitDy=0;exitPerimeter=0;" parent="1" source="qRhZzr3nd4WuFEURyyHy-1" target="qRhZzr3nd4WuFEURyyHy-4" edge="1">
          <mxGeometry width="160" relative="1" as="geometry">
            <mxPoint x="110" y="480" as="sourcePoint" />
            <mxPoint x="270" y="480" as="targetPoint" />
          </mxGeometry>
        </mxCell>
        <mxCell id="qRhZzr3nd4WuFEURyyHy-18" value="" style="edgeStyle=none;html=1;endArrow=none;verticalAlign=bottom;rounded=0;entryX=0;entryY=0.5;entryDx=0;entryDy=0;exitX=1;exitY=0.3333333333333333;exitDx=0;exitDy=0;exitPerimeter=0;" parent="1" source="qRhZzr3nd4WuFEURyyHy-1" target="qRhZzr3nd4WuFEURyyHy-3" edge="1">
          <mxGeometry width="160" relative="1" as="geometry">
            <mxPoint x="120" y="500" as="sourcePoint" />
            <mxPoint x="280" y="500" as="targetPoint" />
          </mxGeometry>
        </mxCell>
        <mxCell id="qRhZzr3nd4WuFEURyyHy-27" value="" style="edgeStyle=none;html=1;endArrow=none;verticalAlign=bottom;rounded=0;entryX=0;entryY=0.5;entryDx=0;entryDy=0;" parent="1" target="qRhZzr3nd4WuFEURyyHy-5" edge="1">
          <mxGeometry width="160" relative="1" as="geometry">
            <mxPoint x="100" y="440" as="sourcePoint" />
            <mxPoint x="180" y="451.8548387096773" as="targetPoint" />
          </mxGeometry>
        </mxCell>
        <mxCell id="qRhZzr3nd4WuFEURyyHy-28" value="" style="edgeStyle=none;html=1;endArrow=none;verticalAlign=bottom;rounded=0;entryX=0;entryY=0.5;entryDx=0;entryDy=0;" parent="1" target="qRhZzr3nd4WuFEURyyHy-13" edge="1">
          <mxGeometry width="160" relative="1" as="geometry">
            <mxPoint x="100" y="480" as="sourcePoint" />
            <mxPoint x="230" y="540" as="targetPoint" />
          </mxGeometry>
        </mxCell>
        <mxCell id="qRhZzr3nd4WuFEURyyHy-29" value="" style="edgeStyle=none;html=1;endArrow=none;verticalAlign=bottom;rounded=0;entryX=0;entryY=0.5;entryDx=0;entryDy=0;" parent="1" target="qRhZzr3nd4WuFEURyyHy-14" edge="1">
          <mxGeometry width="160" relative="1" as="geometry">
            <mxPoint x="90" y="500" as="sourcePoint" />
            <mxPoint x="220" y="580" as="targetPoint" />
          </mxGeometry>
        </mxCell>
        <mxCell id="qRhZzr3nd4WuFEURyyHy-30" value="" style="edgeStyle=none;html=1;endArrow=none;verticalAlign=bottom;rounded=0;exitX=0.984;exitY=0.363;exitDx=0;exitDy=0;exitPerimeter=0;" parent="1" source="qRhZzr3nd4WuFEURyyHy-11" edge="1">
          <mxGeometry width="160" relative="1" as="geometry">
            <mxPoint x="570" y="569.44" as="sourcePoint" />
            <mxPoint x="720" y="600" as="targetPoint" />
          </mxGeometry>
        </mxCell>
        <mxCell id="qRhZzr3nd4WuFEURyyHy-31" value="" style="edgeStyle=none;html=1;endArrow=none;verticalAlign=bottom;rounded=0;entryX=0;entryY=0.5;entryDx=0;entryDy=0;" parent="1" target="qRhZzr3nd4WuFEURyyHy-16" edge="1">
          <mxGeometry width="160" relative="1" as="geometry">
            <mxPoint x="70" y="500" as="sourcePoint" />
            <mxPoint x="130" y="600" as="targetPoint" />
          </mxGeometry>
        </mxCell>
        <mxCell id="qRhZzr3nd4WuFEURyyHy-32" value="" style="edgeStyle=none;html=1;endArrow=none;verticalAlign=bottom;rounded=0;exitX=1;exitY=0;exitDx=0;exitDy=0;" parent="1" source="qRhZzr3nd4WuFEURyyHy-6" target="qRhZzr3nd4WuFEURyyHy-7" edge="1">
          <mxGeometry width="160" relative="1" as="geometry">
            <mxPoint x="484" y="454.44" as="sourcePoint" />
            <mxPoint x="730" y="560" as="targetPoint" />
          </mxGeometry>
        </mxCell>
        <mxCell id="qRhZzr3nd4WuFEURyyHy-33" value="" style="edgeStyle=none;html=1;endArrow=none;verticalAlign=bottom;rounded=0;exitX=1;exitY=0.5;exitDx=0;exitDy=0;" parent="1" source="qRhZzr3nd4WuFEURyyHy-16" edge="1">
          <mxGeometry width="160" relative="1" as="geometry">
            <mxPoint x="550" y="820" as="sourcePoint" />
            <mxPoint x="740" y="630" as="targetPoint" />
          </mxGeometry>
        </mxCell>
        <mxCell id="qRhZzr3nd4WuFEURyyHy-34" value="Book Property" style="ellipse;whiteSpace=wrap;html=1;" parent="1" vertex="1">
          <mxGeometry x="340" y="390" width="140" height="70" as="geometry" />
        </mxCell>
        <mxCell id="qRhZzr3nd4WuFEURyyHy-35" value="Make Payments" style="ellipse;whiteSpace=wrap;html=1;" parent="1" vertex="1">
          <mxGeometry x="340" y="480" width="140" height="70" as="geometry" />
        </mxCell>
        <mxCell id="qRhZzr3nd4WuFEURyyHy-36" value="" style="edgeStyle=none;html=1;endArrow=none;verticalAlign=bottom;rounded=0;entryX=0;entryY=0.5;entryDx=0;entryDy=0;" parent="1" target="qRhZzr3nd4WuFEURyyHy-34" edge="1">
          <mxGeometry width="160" relative="1" as="geometry">
            <mxPoint x="90" y="450" as="sourcePoint" />
            <mxPoint x="250" y="450" as="targetPoint" />
          </mxGeometry>
        </mxCell>
        <mxCell id="qRhZzr3nd4WuFEURyyHy-37" value="" style="edgeStyle=none;html=1;endArrow=none;verticalAlign=bottom;rounded=0;entryX=0;entryY=0.5;entryDx=0;entryDy=0;" parent="1" target="qRhZzr3nd4WuFEURyyHy-35" edge="1">
          <mxGeometry width="160" relative="1" as="geometry">
            <mxPoint x="110" y="470" as="sourcePoint" />
            <mxPoint x="270" y="470" as="targetPoint" />
          </mxGeometry>
        </mxCell>
        <mxCell id="qRhZzr3nd4WuFEURyyHy-38" value="" style="edgeStyle=none;html=1;endArrow=none;verticalAlign=bottom;rounded=0;entryX=0.5;entryY=0;entryDx=0;entryDy=0;entryPerimeter=0;exitX=1.008;exitY=0.617;exitDx=0;exitDy=0;exitPerimeter=0;" parent="1" source="qRhZzr3nd4WuFEURyyHy-4" target="qRhZzr3nd4WuFEURyyHy-9" edge="1">
          <mxGeometry width="160" relative="1" as="geometry">
            <mxPoint x="570" y="198.89" as="sourcePoint" />
            <mxPoint x="750" y="320" as="targetPoint" />
          </mxGeometry>
        </mxCell>
        <mxCell id="qRhZzr3nd4WuFEURyyHy-40" value="frame" style="shape=umlFrame;whiteSpace=wrap;html=1;pointerEvents=0;" parent="1" vertex="1">
          <mxGeometry x="225" y="10" width="370" height="1040" as="geometry" />
        </mxCell>
        <mxCell id="qRhZzr3nd4WuFEURyyHy-41" value="UGBROKER&lt;span style=&quot;background-color: initial;&quot;&gt;&amp;nbsp;PROPERTY&amp;nbsp;&lt;/span&gt;&lt;div&gt;&lt;span style=&quot;background-color: initial;&quot;&gt;MANAGEMENT SYSTEM&lt;/span&gt;&lt;/div&gt;" style="text;html=1;align=center;verticalAlign=middle;resizable=0;points=[];autosize=1;strokeColor=none;fillColor=none;" parent="1" vertex="1">
          <mxGeometry x="330" y="10" width="160" height="40" as="geometry" />
        </mxCell>
        <mxCell id="c59bkK2NAWeg0hyYCpMI-2" value="" style="endArrow=none;html=1;rounded=0;entryX=0.814;entryY=0.957;entryDx=0;entryDy=0;entryPerimeter=0;exitX=0.5;exitY=0;exitDx=0;exitDy=0;exitPerimeter=0;" edge="1" parent="1" source="qRhZzr3nd4WuFEURyyHy-7" target="qRhZzr3nd4WuFEURyyHy-4">
          <mxGeometry width="50" height="50" relative="1" as="geometry">
            <mxPoint x="560" y="360" as="sourcePoint" />
            <mxPoint x="610" y="310" as="targetPoint" />
          </mxGeometry>
        </mxCell>
      </root>
    </mxGraphModel>
  </diagram>
</mxfile>
